<?xml version="1.0" encoding="UTF-8"?>
<svg xmlns="http://www.w3.org/2000/svg" xmlns:xlink="http://www.w3.org/1999/xlink" viewBox="0 0 30 30" width="30px" height="30px">
<g id="surface70791315">
<path style="fill-rule:nonzero;fill:rgb(0%,0%,0%);fill-opacity:1;stroke-width:10;stroke-linecap:butt;stroke-linejoin:round;stroke:rgb(80.000001%,80.000001%,80.000001%);stroke-opacity:1;stroke-miterlimit:10;" d="M 154.804189 86.000003 C 154.804189 116.027538 135.546625 141.466543 108.728683 150.881352 C 108.800008 150.358307 108.942656 149.930361 108.942656 149.335992 L 108.942656 133.668418 C 108.942656 126.70241 104.330351 117.477799 98.053811 114.196881 C 120.925141 111.819404 131.837761 100.431288 131.837761 84.977688 C 131.837761 78.320752 129.008563 71.901564 124.229834 66.480916 C 125.822744 61.084043 127.843599 50.052549 123.635465 45.86819 C 113.317214 45.86819 107.06445 52.572675 105.590414 54.379558 C 100.431288 52.59645 94.772893 51.597909 88.8292 51.597909 C 82.909282 51.597909 77.274662 52.59645 72.139311 54.355783 C 70.641501 52.5489 64.412511 45.86819 54.09426 45.86819 C 49.909901 50.052549 51.906981 61.036493 53.476116 66.433366 C 48.673613 71.854014 45.82064 78.296977 45.82064 84.977688 C 45.82064 100.431288 56.757035 111.843178 79.675914 114.196881 C 75.705527 116.265286 72.448383 120.663618 70.570176 125.442347 C 67.075285 125.989167 63.342646 126.131816 60.87007 126.131816 C 55.758494 126.131816 54.450882 125.323473 51.716783 121.733483 C 48.95891 118.143493 46.034613 115.718466 42.515947 114.719926 C 40.613965 114.529728 39.353903 116.003763 40.994362 117.311376 C 46.581433 121.210438 46.985604 127.605851 49.220432 131.790211 C 51.265063 135.546625 55.449422 137.56748 60.156827 137.56748 C 61.321791 137.56748 66.00542 137.56748 68.810843 137.56748 L 68.810843 149.335992 C 68.810843 150.667379 69.001042 151.761018 69.333888 152.688234 C 39.401452 145.222956 17.195816 118.238592 17.195816 86.000003 C 17.195816 48.007919 48.007919 17.195816 86.000003 17.195816 C 123.992086 17.195816 154.804189 48.007919 154.804189 86.000003 Z M 154.804189 86.000003 " transform="matrix(0.164302,0,0,0.164302,0.87,0.87)"/>
<path style=" stroke:none;fill-rule:nonzero;fill:rgb(100%,100%,100%);fill-opacity:1;" d="M 15 3.695312 C 8.757812 3.695312 3.695312 8.757812 3.695312 15 C 3.695312 20.296875 7.34375 24.730469 12.261719 25.957031 C 12.207031 25.804688 12.175781 25.625 12.175781 25.40625 L 12.175781 23.472656 C 11.714844 23.472656 10.945312 23.472656 10.753906 23.472656 C 9.980469 23.472656 9.292969 23.140625 8.957031 22.523438 C 8.589844 21.835938 8.523438 20.785156 7.605469 20.144531 C 7.335938 19.929688 7.542969 19.6875 7.855469 19.71875 C 8.433594 19.882812 8.914062 20.28125 9.367188 20.871094 C 9.816406 21.460938 10.03125 21.59375 10.871094 21.59375 C 11.277344 21.59375 11.890625 21.570312 12.464844 21.480469 C 12.773438 20.695312 13.308594 19.972656 13.960938 19.632812 C 10.195312 19.246094 8.398438 17.371094 8.398438 14.832031 C 8.398438 13.734375 8.867188 12.675781 9.65625 11.785156 C 9.398438 10.898438 9.070312 9.09375 9.757812 8.40625 C 11.453125 8.40625 12.476562 9.503906 12.722656 9.800781 C 13.566406 9.511719 14.492188 9.347656 15.464844 9.347656 C 16.441406 9.347656 17.371094 9.511719 18.21875 9.804688 C 18.460938 9.507812 19.488281 8.40625 21.183594 8.40625 C 21.875 9.09375 21.542969 10.90625 21.28125 11.792969 C 22.066406 12.683594 22.53125 13.738281 22.53125 14.832031 C 22.53125 17.371094 20.738281 19.242188 16.980469 19.632812 C 18.011719 20.171875 18.769531 21.6875 18.769531 22.832031 L 18.769531 25.40625 C 18.769531 25.503906 18.746094 25.574219 18.734375 25.660156 C 23.140625 24.113281 26.304688 19.933594 26.304688 15 C 26.304688 8.757812 21.242188 3.695312 15 3.695312 Z M 15 3.695312 "/>
</g>
</svg>
